# xmcd
#
# Track frame offsets:
#	150
#	15277
#	27880
#	39385
#	50014
#	70392
#	85932
#	101090
#	116617
#	126347
#
# Disc length: 1833 seconds
#
# Revision: 0
# Processed by: cddbd v1.5.1PL0 Copyright (c) Steve Scherf et al.
# Submitted via: EasyCDDAExtractor 8.1.4.1
#
DISCID=8007270a
DTITLE=Various Artist - Esta Igreja e bonita
DYEAR=1900
DGENRE=
TTITLE0=Rone e Arzelino - Esta igreja é bonita
TTITLE1=Unknown artist - Profecias de Isaias
TTITLE2=Unknown artist - Derrota de Satanas
TTITLE3=Unknown artist - Advogado e Juiz
TTITLE4=Unknown artist - Cruz Pesada
TTITLE5=Unknown artist - Os milagres de Jesus
TTITLE6=Unknown artist - Semblante caido
TTITLE7=Unknown artist - O Livro da vida
TTITLE8=Unknown artist - Carro de fogo
TTITLE9=Unknown artist - Monte Sinai
EXTD=
EXTT0=
EXTT1=
EXTT2=
EXTT3=
EXTT4=
EXTT5=
EXTT6=
EXTT7=
EXTT8=
EXTT9=
PLAYORDER=
